<svg width="165" height="87" viewBox="0 0 165 87" fill="none" xmlns="http://www.w3.org/2000/svg">
<g clip-path="url(#clip0_45_92)">
<path d="M131.821 28.7655H98.6954V-0.232544C116.981 -0.232544 131.821 12.7586 131.821 28.7655Z" fill="#FFFAE8"/>
<path d="M164.947 28.7654H131.821V57.7635C150.107 57.7635 164.947 44.7724 164.947 28.7654Z" fill="#FFFAE8"/>
<path d="M98.6953 28.7654H65.5693V57.7635C83.8549 57.7635 98.6953 44.7724 98.6953 28.7654Z" fill="#FFB600"/>
<path d="M131.821 57.7635H98.6954C98.6954 41.7566 113.536 28.7654 131.821 28.7654V57.7635Z" fill="#FFB600"/>
<path d="M98.6953 28.7655H65.5693C65.5693 12.7586 80.4097 -0.232544 98.6953 -0.232544V28.7655Z" fill="#FE5E33"/>
<path d="M164.947 86.7619H131.821C131.821 70.7549 146.662 57.7638 164.947 57.7638V86.7619Z" fill="#FFFAE8"/>
<path d="M164.947 -0.232544L131.821 -0.232544C131.821 15.7744 146.662 28.7655 164.947 28.7655V-0.232544Z" fill="#FFB600"/>
<path d="M98.6953 57.7638H65.5693C65.5693 73.7707 80.4097 86.7619 98.6953 86.7619V57.7638Z" fill="#FFFAE8"/>
<path d="M131.821 57.7638C131.821 73.7707 116.981 86.7619 98.6954 86.7619V57.7638H131.821Z" fill="#FE5E33"/>
</g>
<path d="M65.4659 59.423H32.3399V30.4249C50.6255 30.4249 65.4659 43.416 65.4659 59.423Z" fill="#FE5E33"/>
<path d="M32.34 59.423H-0.786083C-0.786083 43.416 14.0544 30.4249 32.34 30.4249V59.423Z" fill="#FFFAE8"/>
<defs>
<clipPath id="clip0_45_92">
<rect width="115.992" height="165.63" fill="white" transform="matrix(0 1 -1 0 231.199 -29.2307)"/>
</clipPath>
</defs>
</svg>
