<svg width="357" height="75" viewBox="0 0 357 75" fill="none" xmlns="http://www.w3.org/2000/svg">
<g clip-path="url(#clip0_45_178)">
<path d="M356.566 37.1163H305.692V-0.252258C333.775 -0.252258 356.566 16.4888 356.566 37.1163Z" fill="#0A5F59"/>
<path d="M254.817 -0.252258L203.943 -0.252258V37.1163C232.025 37.1163 254.817 20.3752 254.817 -0.252258Z" fill="#0A5F59"/>
<path d="M153.068 -0.252258L102.194 -0.252258V37.1163C130.276 37.1163 153.068 20.3752 153.068 -0.252258Z" fill="#FFB600"/>
<path d="M305.692 37.1163H254.817C254.817 16.4888 277.609 -0.252258 305.692 -0.252258V37.1163Z" fill="#FE5E33"/>
<path d="M203.943 37.1163H153.068C153.068 16.4888 175.86 -0.252258 203.943 -0.252258V37.1163Z" fill="#FFB600"/>
<path d="M254.817 74.4849H203.943C203.943 53.8574 226.735 37.1163 254.817 37.1163V74.4849Z" fill="#0A5F59"/>
<path d="M153.068 37.1163H102.194C102.194 57.7438 124.986 74.4849 153.068 74.4849V37.1163Z" fill="#0A5F59"/>
<path d="M305.692 37.1163C305.692 57.7438 282.9 74.4849 254.817 74.4849V37.1163H305.692Z" fill="#FFB600"/>
<path d="M203.943 37.1163C203.943 57.7438 181.151 74.4849 153.068 74.4849V37.1163H203.943Z" fill="#FE5E33"/>
</g>
<path d="M102.035 39.2547H51.1605V1.88617C79.2432 1.88617 102.035 18.6273 102.035 39.2547Z" fill="#FE5E33"/>
<path d="M51.1605 39.2547H0.286016C0.286016 18.6273 23.0778 1.88617 51.1605 1.88617V39.2547Z" fill="#0A5F59"/>
<defs>
<clipPath id="clip0_45_178">
<rect width="149.474" height="254.373" fill="white" transform="matrix(0 1 -1 0 356.566 -74.9893)"/>
</clipPath>
</defs>
</svg>
